<svg t="1731596946010" class="icon" viewBox="0 0 1024 1024" version="1.1" xmlns="http://www.w3.org/2000/svg" p-id="3921" width="230" height="230"><path d="M872.021333 149.33333333H341.333333v85.333333h530.688q20.821333 0 33.664 16.426667 12.8 16.384 7.765334 36.608l-85.333334 341.333333q-3.584 14.208-15.146666 23.253334-11.562667 9.045333-26.282667 9.045333H327.424q-15.488 0-27.349333-9.941333-11.946667-9.941333-14.634667-25.216L203.946667 169.51466633Q195.712 123.73333333 160 93.86666633 124.416 64.00000033 77.909333 64.00000033H0v85.333333h77.909333q15.488 0 27.349334 9.941333 11.946667 9.984 14.634666 25.216L201.386667 641.15200033q8.192 45.824 43.861333 75.648 35.626667 29.866667 82.133333 29.866666h459.264q44.074667 0 78.805334-27.093333 34.730667-27.136 45.397333-69.845333l85.333333-341.333334q15.146667-60.586667-23.296-109.824Q934.528 149.33333333 872.021333 149.33333333z" p-id="3922"></path><path d="M213.333333 874.66666633a85.333333 85.333333 0 1 0 170.666667 0 85.333333 85.333333 0 1 0-170.666667 0Z" p-id="3923"></path><path d="M725.333333 874.66666633a85.333333 85.333333 0 1 0 170.666667 0 85.333333 85.333333 0 1 0-170.666667 0Z" p-id="3924"></path></svg>