<svg t="1686225428952" class="icon" viewBox="0 0 1024 1024" version="1.1" xmlns="http://www.w3.org/2000/svg" p-id="5625" width="200" height="200"><path d="M849.365 15.875C936.683 15.875 1008.125 87.47367085 1008.125 174.94834169v515.02997395s-31.752-3.99511148-174.636-51.7014469c-39.69-13.91761148-93.2715-33.81483541-152.8065-55.69655938 35.721-61.62394691 63.504-133.22261874 83.349-208.76417808h-196.4655v-69.61417085h240.1245V264.433625h-240.1245V147.11311872h-97.2405c-17.8605 0-17.8605 17.88661148-17.8605 17.88661149v101.41839479H210.356v39.76833541h242.109v67.62967087H252.0305v39.74222393H640.9925c-13.8915 49.71694691-33.7365 95.46489479-55.566 137.2177302-125.0235-41.77894691-259.9695-75.56767085-345.303-53.68594689-53.5815 13.91761148-89.3025 37.78383543-109.1475 61.62394691-93.2715 113.35150626-25.7985 286.34246041 170.667 286.34246042 117.0855 0 230.202-65.61905936 317.52-172.99095416C750.14 735.70015106 1008.125 843.09815831 1008.125 843.09815831v5.9535C1008.125 936.52632915 936.683 1008.125 849.365 1008.125H174.635C87.317 1008.125 15.875 936.55244064 15.875 849.05165831V174.94834169C15.875 87.47367085 87.317 15.875 174.635 15.875h674.73zM275.68782915 551.84667085c90.16419064-10.05305936 174.47932915 26.13795415 274.48768437 76.42936246-72.56480936 92.54036874-160.79672394 150.87422394-249.00252704 150.87422297-152.93705936 0-198.03221043-122.7256583-121.57673648-191.08646043 25.48515831-22.14284169 70.58030936-34.20651352 96.09157915-36.217125z" p-id="5626"></path></svg>