<svg t="1729604176145" class="icon" viewBox="0 0 1024 1024" version="1.1" xmlns="http://www.w3.org/2000/svg" p-id="3681" width="230" height="230"><path d="M6.62894668 203.83670924c27.03186761-37.24390649 57.66798425-69.08143945 92.50905804-96.11330707 34.8410738-27.03186761 73.8871048-48.6573617 116.53738483-65.47719043 10.21203887-4.20495718 22.22620225-0.60070817 28.83399212 7.80920619l4.20495716 5.40637354c6.00708169 7.80920622 4.80566536 19.82336958-3.60424899 25.83045125-1.20141633 1.20141633-3.00354086 1.80212451-4.20495719 2.40283268-39.64673917 16.21912056-76.89064566 37.24390649-111.1310113 63.67506594-33.63965747 26.43115945-63.67506593 57.06727607-88.90480904 91.90834988-6.00708169 8.40991438-17.42053689 10.21203887-25.83045125 3.60424901l-3.60424902-3.60424901-4.20495719-5.40637352c-6.60778986-8.40991438-6.60778986-21.02478593-0.60070817-30.03540846z" p-id="3682"></path><path d="M649.38668766 278.92523038h-534.63027053c-53.46302705 0-96.71401523 42.65028001-97.3147234 96.11330706v535.2309787c0 53.46302705 42.65028001 96.71401523 96.11330706 97.3147234h535.2309787c53.46302705 0 96.71401523-42.65028001 97.3147234-96.11330707V376.23995379c0-54.06373521-43.25098818-97.3147234-96.71401523-97.31472341z m-266.7144271 343.00436456c-118.94021748 0-216.85564906-92.50905805-223.46343894-211.44927553h56.46656793C222.2831794 502.98937746 302.17736588 572.07081691 394.08571578 565.46302705c82.89772735-6.00708169 148.97562594-72.0849803 154.98270763-154.98270764h57.66798423c-7.20849805 118.94021748-105.12392959 211.44927553-224.06414708 211.44927553z" p-id="3683"></path><path d="M920.30607193 22.42284216h-534.63027052c-53.46302705 0-96.71401523 42.65028001-97.3147234 96.11330705V217.65299712h399.47093246c65.47719043 0 118.94021748 53.46302705 119.54092568 119.54092567v413.28722035h112.93313578c53.46302705 0 96.71401523-42.65028001 97.31472341-96.11330705V119.13685739c-0.60070817-53.46302705-43.85169636-96.71401523-97.31472341-96.71401523z" p-id="3684"></path></svg>