<svg t="1682488542810" class="icon" viewBox="0 0 1024 1024" version="1.1" xmlns="http://www.w3.org/2000/svg" p-id="10591" width="200" height="200"><path d="M524.501333 559.829333L434.005333 469.333333a42.666667 42.666667 0 1 0-60.373333 60.330667l120.704 120.704a42.538667 42.538667 0 0 0 60.330667 0L735.701333 469.333333a42.666667 42.666667 0 1 0-60.373333-60.330666l-150.826667 150.826666zM85.333333 170.666667c199.125333-113.792 348.458667-170.666667 448-170.666667S782.208 56.874667 981.333333 170.666667c4.736 113.792-9.472 256-42.666666 426.666666-49.792 256-341.333333 426.666667-405.333334 426.666667S170.666667 853.333333 128 597.333333c-28.458667-170.666667-42.666667-312.874667-42.666667-426.666666z" p-id="10592"></path></svg>