<svg t="1743606517829" class="icon" viewBox="0 0 1024 1024" version="1.1" xmlns="http://www.w3.org/2000/svg" p-id="5064" width="230" height="230"><path d="M359.08266667 2.27555515a203.38005334 203.38005334 0 0 1 152.96830618 69.06766302 203.02324582 203.02324582 0 0 1 140.78589115-68.7108555L664.91733333 2.27555515h76.45866667a178.40355516 178.40355516 0 0 1 124.78054401 305.88563952L945.26577818 308.11022183A76.45866667 76.45866667 0 0 1 1021.72444485 384.5688885v25.48622301a50.97244484 50.97244484 0 0 1-50.97244485 50.97244365v458.752a101.94488849 101.94488849 0 0 1-101.94488849 101.94488969H155.19288849a101.94488849 101.94488849 0 0 1-101.94488849-101.94488969v-458.752a50.97244484 50.97244484 0 0 1-50.97244485-50.97244365v-25.48622301A76.45866667 76.45866667 0 0 1 78.73422182 308.11022183l79.10923417 0.05097284A178.40355516 178.40355516 0 0 1 282.624 2.27555515H359.08266667z m101.63905382 504.01553068c-4.43460266-41.49157018-56.01871685-60.96304316-86.704128-30.22665915l-127.43111032 127.4311115-4.23071368 4.79140897a50.97244484 50.97244484 0 0 0 4.23071368 67.28362668l4.79140899 4.23071368a50.97244484 50.97244484 0 0 0 67.28362666-4.23071368L359.08266667 635.25137067v182.68524049l0.35680751 5.96377599A50.97244484 50.97244484 0 0 0 461.02755516 817.93661115v-305.83466666zM613.94488849 461.02755516a50.97244484 50.97244484 0 0 0-50.97244365 50.97244484v305.83466666l0.30583467 5.81085867c4.43460266 41.49157018 56.01871685 60.96304316 86.704128 30.22665916l127.43111032-127.43111031 4.23071368-4.79141017a50.97244484 50.97244484 0 0 0-4.23071368-67.28362668l-4.79140899-4.23071248a50.97244484 50.97244484 0 0 0-67.28362666 4.23071248l-40.42114885 40.31920317V512l-0.35680751-5.963776A50.97244484 50.97244484 0 0 0 613.94488849 461.02755516z m127.43111151-356.80711032H664.91733333a101.94488849 101.94488849 0 0 0-101.69002666 94.29902182L562.97244484 206.16533334v50.97244483h178.40355516a76.45866667 76.45866667 0 0 0 75.08241066-61.93152l1.01944849-7.13614302L817.83466666 180.6791115A76.45866667 76.45866667 0 0 0 741.376 104.22044484zM359.08266667 104.22044484H282.624A76.45866667 76.45866667 0 0 0 206.16533334 180.6791115l0.35680751 7.34003201A76.45866667 76.45866667 0 0 0 282.624 257.13777817H461.02755516V206.16533334a101.94488849 101.94488849 0 0 0-101.94488849-101.9448885z" p-id="5065"></path></svg>