<svg t="1729431980631" class="icon" viewBox="0 0 1024 1024" version="1.1" xmlns="http://www.w3.org/2000/svg" p-id="4053" width="230" height="230"><path d="M921.6 0H204.8v102.4h629.76c48.128 0 87.04 38.912 87.04 87.04v629.76h102.4V87.04c0-48.128-38.912-87.04-87.04-87.04h-15.36z" p-id="4054"></path><path d="M87.04 1024h645.12c48.128 0 87.04-38.912 87.04-87.04V291.84c0-48.128-38.912-87.04-87.04-87.04H87.04C38.912 204.8 0 243.712 0 291.84v645.12c0 48.128 38.912 87.04 87.04 87.04zM153.6 358.4h512v102.4H460.8v409.6H358.4V460.8H153.6V358.4z" p-id="4055"></path></svg>