<svg t="1711895184538" class="icon" viewBox="0 0 1024 1024" version="1.1" xmlns="http://www.w3.org/2000/svg" p-id="13528" width="230" height="230"><path d="M128 85.333333h768a85.333333 85.333333 0 0 1 85.333333 85.333334v554.666666a85.333333 85.333333 0 0 1-85.333333 85.333334H128a85.333333 85.333333 0 0 1-85.333333-85.333334V170.666667a85.333333 85.333333 0 0 1 85.333333-85.333334z m427.093333 426.666667l0.128-42.666667H640a42.666667 42.666667 0 0 0 0-85.333333h-62.037333l62.72-52.650667a42.666667 42.666667 0 1 0-54.912-65.365333l-65.365334 54.912-66.56-55.082667a42.666667 42.666667 0 1 0-54.4 65.706667L462.848 384H384a42.666667 42.666667 0 1 0 0 85.333333h85.888l-0.170667 42.666667H384a42.666667 42.666667 0 0 0 0 85.333333h85.461333l-0.128 36.394667c-0.085333 26.922667 18.944 48.853333 42.496 48.938667 23.594667 0.085333 42.752-21.632 42.837334-48.597334l0.128-36.736H640a42.666667 42.666667 0 0 0 0-85.333333h-84.906667z" p-id="13529"></path><path d="M213.333333 981.333333h597.333334a42.666667 42.666667 0 0 0 0-85.333333H213.333333a42.666667 42.666667 0 0 0 0 85.333333z" p-id="13530"></path></svg>